<svg xmlns="http://www.w3.org/2000/svg" viewBox="-4 -4 541 721"><defs><style>.cls-1{fill:#fff;stroke:red;stroke-miterlimit:10;stroke-width:8px;}</style></defs><g id="Layer_2" data-name="Layer 2"><g id="Layer_1-2" data-name="Layer 1"><path class="cls-1" d="M532,387.5,449.35,712.17H373.58L291,387.5h83.89l36.6,206.38L448.26,387.5Z"/><path class="cls-1" d="M241,712.17H157.29V631.36H83.69v80.81H0V425.5q0-16.83,10.58-27.42T38,387.5H203q16.83,0,27.42,10.58T241,425.5Zm-83.69-151V463.5a8.72,8.72,0,0,0-3.13-7,12.64,12.64,0,0,0-8.42-2.64H93.79a9.79,9.79,0,0,0-7.21,2.88,9.26,9.26,0,0,0-2.89,6.74v97.64Z"/><path class="cls-1" d="M291,264.5H439.46c3.66,0,5.5-1.5,5.5-4.5V211c0-3-1.84-4.5-5.5-4.5h-109q-17.5,0-28.5-11T291,167V39.5Q291,22,302,11T330.57,0H527.46V72H383c-3.34,0-5,1.85-5,5.55v49.91a4.71,4.71,0,0,0,1.25,3A4.57,4.57,0,0,0,383,132H492.3q17.56,0,28.61,11T532,171.5V298q0,17.5-11,28.5t-28.57,11H291Z"/><path class="cls-1" d="M0,0H87V264.5H241v73H0Z"/></g></g></svg>